PathFileType	4	(X/Y/Z)	Patient4_TMGait_0pt5_01_right_34.trc.trc
DataRate	CameraRate	NumFrames	NumMarkers	Units	OrigDataRate	OrigDataStartFrame	OrigNumFrames
75.675675675676	75.675675675676	4	33	mm	75.675675675676	124	       141
Frame#	Time	L.ASIS			Sacral			L.Shoulder			Chest			R.Shoulder			Neck			R.ASIS			R.Thigh.Superior			R.Thigh.Lateral			R.Thigh.Inferior			R.Patella			L.Thigh.Superior			L.Thigh.Lateral			L.Thigh.Inferior			L.Patella			L.Shank.Superior			L.Shank.Lateral			L.Shank.Inferior			R.Shank.Superior			R.Shank.Lateral			R.Shank.Inferior			R.Heel			R.Midfoot.Superior			R.Midfoot.Lateral			R.Toe			L.Heel			L.Midfoot.Lateral			L.Midfoot.Superior			L.Toe			L.Elbow			L.Wrist			R.Elbow			R.Wrist			
		X1	Y1	Z1	X2	Y2	Z2	X3	Y3	Z3	X4	Y4	Z4	X5	Y5	Z5	X6	Y6	Z6	X7	Y7	Z7	X8	Y8	Z8	X9	Y9	Z9	X10	Y10	Z10	X11	Y11	Z11	X12	Y12	Z12	X13	Y13	Z13	X14	Y14	Z14	X15	Y15	Z15	X16	Y16	Z16	X17	Y17	Z17	X18	Y18	Z18	X19	Y19	Z19	X20	Y20	Z20	X21	Y21	Z21	X22	Y22	Z22	X23	Y23	Z23	X24	Y24	Z24	X25	Y25	Z25	X26	Y26	Z26	X27	Y27	Z27	X28	Y28	Z28	X29	Y29	Z29	X30	Y30	Z30	X31	Y31	Z31	X32	Y32	Z32	X33	Y33	Z33	

124	46.245357142857	812.992956824138	947.877138232760	324.122155982870	583.480147518101	1002.071033711146	454.765643897886	793.916473887050	1427.634150795443	298.669428152779	870.905908309269	1353.258355221345	471.574949550364	764.048855543031	1428.786014891942	632.957848321176	778.052520906538	1487.190666136276	449.139487488069	794.494159167530	936.890028532050	598.479959192738	859.748872589618	751.634803611765	576.803216688192	796.466346909336	634.443861493594	639.255638487281	884.847783055126	591.300348525139	562.851741124806	908.875147426470	510.325768559174	574.637373160189	812.192209892846	721.510421515600	355.259452829011	701.980630297905	628.583676623051	283.820207646848	755.462161578729	534.719914508835	353.295317179469	738.420637940695	465.965649016195	361.717214430220	701.867794278763	401.098645681378	350.830823340971	597.798614266210	303.496354265380	294.261016704528	622.078784117183	185.627434257134	366.410048940816	896.340378183571	421.994725534141	583.494931322174	844.831291736537	307.086432128522	644.250501034028	915.360868432362	223.127240789546	591.296226931254	822.088576524283	41.025810800273	559.490245884186	984.755377897938	110.484912119345	601.825797942129	905.314836343582	37.730166848601	634.568721178807	1108.245618190496	71.701424224888	629.083590731668	472.750011881125	39.689276750334	398.803436140917	549.405828521156	35.546370619098	321.237835883226	632.846537176877	94.917803608343	350.984139409623	761.450123427510	39.162459328414	325.453062827891	744.019999358179	1091.727972816187	150.294909036690	926.692054328988	904.918641553437	163.890368080341	672.700944288300	1087.208488066937	729.469931545089	741.172307146215	834.453944606239	740.019755192577	
125	46.258571428571	814.041080935110	947.377668108449	326.383250434923	584.647389812278	1000.263839863358	457.637959050076	792.691345759416	1427.140075895981	302.302618633652	870.410090454243	1352.728378964849	474.903863074465	763.400047403683	1427.282841592521	636.729654268191	776.831396847636	1486.260841458982	452.983344242308	796.188740565682	935.588350515497	600.709415696240	862.491021709969	750.882501572401	578.259593679365	798.445181937288	632.980015341161	639.618869523409	887.535475546733	590.716690008225	563.766573889815	910.330925653567	508.758116364098	574.753351156878	812.507456686263	720.247359120748	356.505895259089	701.375628296726	627.853207089141	285.581585167389	754.779869212138	533.546418625761	354.598956508376	737.670401633081	464.206954676022	362.725608738830	699.686141048733	399.835564859713	351.883854819890	594.026256289727	303.921103717760	295.132368740048	616.851773957853	185.367928088055	366.673474072507	897.087814782295	419.763445257896	583.356928861693	843.838337035559	305.504637422596	643.752046209860	912.652903976099	220.676475106639	590.384215880615	815.686192494124	41.234021223970	558.712095121446	979.871454307027	107.457403367100	600.419836952046	898.701365606352	37.220611648709	633.965106262013	1102.489136304039	66.345222044641	628.033573488760	466.032950902546	40.447036336678	398.629917853690	542.783342804853	35.815262782507	321.212539733917	626.490569701788	94.932448715884	350.875446540163	754.870802247212	39.015309132169	325.367261106038	743.366667634383	1091.057167900602	153.883509804687	926.592237230218	904.761764216466	167.677046374302	676.076303946463	1084.396430099241	732.916497060061	752.361278208633	833.806953221488	741.773653299884	
126	46.271785714286	815.043901142474	947.093701636305	328.782982968587	585.884829890220	998.607941544752	460.702465924272	791.501344635133	1426.825075721795	306.109014076176	869.978505933130	1352.358239075542	478.396857249872	762.854783258113	1425.918351452023	640.696143232308	775.682246198224	1485.497086168758	457.023787824792	798.065121625754	934.489183363944	603.059452626532	865.618098199789	750.498740355830	579.506753163148	801.116693521141	631.878712864248	639.950229198752	890.797645211282	590.487164131612	564.499160676694	912.393915151848	507.356585832415	574.750852028448	813.257045093039	719.259589918427	357.841522469703	701.415753109129	627.102036177154	287.514152655946	755.104527671512	532.426645022452	356.035690535920	738.067105624569	462.310592461518	363.748643533158	698.356029892232	398.496310182029	353.004685995868	590.857418922195	304.603974717405	296.104864973318	612.005627427703	185.282067138603	366.919879845822	898.219017336458	417.715478349417	583.143953309041	843.132980544457	304.227889323990	643.381116732903	909.826813735475	218.350891719948	589.429759344046	808.680379760223	41.517673415350	558.062346291983	974.368657734122	104.652070510446	598.971327261761	891.539712026076	36.841853573803	633.448741525936	1096.196219361580	61.296381347008	626.968975850668	459.373517612534	41.821848511634	398.415779664562	536.182041438143	36.390513857584	321.162210287158	620.329857608415	95.016029953735	350.692323896080	748.266636204798	38.810096198310	325.276096149264	742.543271652505	1090.612074563203	157.589275394931	926.019951666693	904.501736284243	171.334259373763	679.671047792888	1081.750069545699	736.565345622272	763.714269407532	833.620331129238	743.882456100038	
127	46.285000000000	815.942106354111	947.066585878857	331.303198979952	587.142927901476	997.171742673826	463.938221555956	790.347061292054	1426.734182075186	310.058149550006	869.610971181449	1352.179506439901	482.016527413160	762.440710188365	1424.749774826748	644.821524927138	774.626781720715	1484.944267681892	461.230541649137	800.071398575617	933.632895951795	605.515695327281	868.944577346948	750.432972940812	580.561829723338	804.288038696241	631.155313860514	640.324188576692	894.352862895460	590.539469192743	565.067433203419	914.820797362514	506.145418787187	574.678106088032	814.474603241600	718.622514721700	359.288535681628	702.251245625979	626.330188507618	289.610083609982	756.643837636172	531.394578914225	357.600353343641	739.814497047223	460.304980325095	364.757367298952	698.075913262947	397.110238865934	354.170630827153	588.471222703291	305.627635976950	297.181667819980	607.682614708794	185.460165407111	367.145825337595	899.554251226191	415.916476365929	582.923738680305	842.673785952990	303.275210470673	643.216174706970	906.960464882470	216.259305051700	588.525094666911	801.457262423260	41.815356912181	557.586836315669	968.498706651463	102.253227417118	597.604117125735	884.215377229995	36.590551999892	633.063843340677	1089.674756326626	56.899586010925	625.991049687649	452.857196661538	44.051803566708	398.180313207523	529.647210864995	37.429781876459	321.097628214841	614.457799488132	95.222276773433	350.433215976309	741.628101409101	38.530224464504	325.189519088542	741.564044842878	1090.427298509650	161.415105051438	924.963521174366	904.147284098391	174.858130562792	683.495068949107	1079.340609465181	740.396192114065	775.145931226663	833.932558791227	746.325713384462	
